<svg width="113" height="42" viewBox="0 0 113 42" fill="none" xmlns="http://www.w3.org/2000/svg">
<path d="M69.0344 13.3932C73.5697 11.3633 80.4298 11.2672 78.0564 16.9761L77.6169 15.7698L76.6661 16.5454L76.6705 15.3853L75.7004 16.549L75.6469 15.0578L74.542 16.2032L74.5429 14.5305L73.2685 15.707L73.2226 14.2572L71.983 15.3845L71.925 14.1085L70.8019 14.9142L70.6198 13.9182L69.8251 14.3637L69.0344 13.3932Z" fill="#FF954C"/>
<path d="M69.1562 14.5288C67.5511 9.03257 68.5805 0.35285 74.8916 2.50142L73.398 3.2462L74.6707 4.34304L72.7729 4.51842L73.955 5.58893L72.1629 5.87364L73.3262 7.07624L71.3606 7.34979L72.5694 8.80139L70.8189 9.07851L71.9371 10.5038L70.4431 10.7769L71.1915 12.0553L70.0107 12.3998L70.4342 13.3088L69.1562 14.5288Z" fill="#FF954C"/>
<path d="M69.3062 13.4721C67.3199 8.00263 61.1748 1.83527 57.26 7.86884L58.9387 7.4333L58.5706 9.17318L60.2525 8.05088L59.9031 9.65867L61.5662 8.66846L61.3301 10.4271L63.1365 9.28202L63.0214 11.233L64.6015 10.2579L64.5203 12.1598L65.9156 11.3472L66.0718 12.9054L67.2637 12.3873L67.4873 13.3757L69.3062 13.4721Z" fill="#FF954C"/>
<path d="M69.7144 14.2981C65.3975 10.1553 57.0101 6.97106 56.2734 13.9676L57.6233 12.906L58.0664 14.6262L59.0458 12.9461L59.5153 14.5758L60.559 13.0126L61.1682 14.7025L62.2645 12.9582L63.07 14.7837L64.0798 13.2696L64.9116 15.0046L65.7934 13.7283L66.6814 15.067L67.4917 14.104L68.1566 14.926L69.7144 14.2981Z" fill="#FF954C"/>
<path d="M69.7854 13.5132C64.5403 13.4427 57.6001 16.2982 61.842 20.9694L61.8897 19.5883L63.2753 20.3643L62.7304 18.7913L64.0669 19.5334L63.6541 17.9792L65.1075 18.657L64.589 16.9934L66.2499 17.6333L65.8108 16.1697L67.415 16.7341L67.0553 15.4704L68.4404 15.7747L68.2923 14.7296L69.2169 14.8608L69.7854 13.5132Z" fill="#FF954C"/>
<path d="M68.5743 13.6917C71.1731 8.67063 77.9447 3.01545 81.0671 8.83477L79.4365 8.36088L79.6079 10.0021L78.1201 8.90173L78.2348 10.4676L76.7283 9.49925L76.7676 11.1218L75.1478 10.0026L75.0099 11.8291L73.5449 10.8532L73.3504 12.6042L72.0893 11.8054L71.7096 13.2472L70.6261 12.7162L70.2798 13.6372L68.5743 13.6917Z" fill="#FF954C"/>
<path d="M6.79688 36.205C4.89062 36.205 3.52604 35.8977 2.70312 35.2831C1.88021 34.6686 1.44271 33.6529 1.39062 32.2363C1.20312 27.3092 1.20312 22.3821 1.39062 17.455C1.44271 16.1634 1.88542 15.1842 2.71875 14.5175C3.55208 13.8404 4.90104 13.5019 6.76562 13.5019C8.69271 13.5019 10.0938 13.8092 10.9688 14.4238C11.8542 15.0384 12.3177 16.054 12.3594 17.4706C12.3802 17.8144 12.3906 18.2415 12.3906 18.7519C12.3906 19.2519 12.3802 19.7571 12.3594 20.2675C12.349 20.7675 12.3385 21.1946 12.3281 21.5488H10.1562C10.1771 20.8717 10.1875 20.1321 10.1875 19.33C10.1979 18.5279 10.1875 17.7884 10.1562 17.1113C10.1458 16.4863 9.88542 16.0384 9.375 15.7675C8.875 15.4967 8.00521 15.3613 6.76562 15.3613C5.63021 15.3613 4.81771 15.4967 4.32812 15.7675C3.84896 16.0384 3.59375 16.4863 3.5625 17.1113C3.39583 22.2675 3.39583 27.429 3.5625 32.5956C3.59375 33.2102 3.84896 33.6581 4.32812 33.9394C4.81771 34.2102 5.64062 34.3456 6.79688 34.3456C8.09896 34.3456 9.01042 34.2102 9.53125 33.9394C10.0625 33.6581 10.3438 33.2102 10.375 32.5956C10.4062 31.8665 10.4062 31.0852 10.375 30.2519C10.3542 29.4081 10.3281 28.6217 10.2969 27.8925H12.5156C12.5677 28.6217 12.599 29.3456 12.6094 30.0644C12.6198 30.7727 12.599 31.4967 12.5469 32.2363C12.4844 33.6529 12.0052 34.6686 11.1094 35.2831C10.224 35.8977 8.78646 36.205 6.79688 36.205ZM20.75 36.205C18.7083 36.205 17.2552 35.8977 16.3906 35.2831C15.526 34.6686 15.0677 33.6581 15.0156 32.2519C14.9115 29.7206 14.8594 27.2519 14.8594 24.8456C14.8594 22.429 14.9115 19.955 15.0156 17.4238C15.0677 16.0175 15.526 15.0123 16.3906 14.4081C17.2552 13.7936 18.7083 13.4863 20.75 13.4863C22.7812 13.4863 24.2396 13.7936 25.125 14.4081C26.0104 15.0123 26.4583 16.0175 26.4688 17.4238C26.5312 19.9654 26.5625 22.4394 26.5625 24.8456C26.5625 27.2519 26.5312 29.7206 26.4688 32.2519C26.4583 33.6581 26.0104 34.6686 25.125 35.2831C24.2396 35.8977 22.7812 36.205 20.75 36.205ZM20.75 34.33C22.0417 34.33 22.9479 34.1998 23.4688 33.9394C23.9896 33.6686 24.2656 33.2311 24.2969 32.6269C24.4427 30.0227 24.5 27.4081 24.4688 24.7831C24.4479 22.1581 24.3906 19.5852 24.2969 17.0644C24.2656 16.4498 23.9844 16.0123 23.4531 15.7519C22.9219 15.4915 22.0208 15.3613 20.75 15.3613C19.4583 15.3613 18.5469 15.4915 18.0156 15.7519C17.4948 16.0123 17.2188 16.4498 17.1875 17.0644C17.0417 19.5852 16.974 22.1581 16.9844 24.7831C17.0052 27.4081 17.0729 30.0227 17.1875 32.6269C17.2188 33.2311 17.4948 33.6686 18.0156 33.9394C18.5469 34.1998 19.4583 34.33 20.75 34.33ZM34.6406 36.205C32.7344 36.205 31.3698 35.8977 30.5469 35.2831C29.724 34.6686 29.2865 33.6529 29.2344 32.2363C29.0469 27.3092 29.0469 22.3821 29.2344 17.455C29.2865 16.1634 29.7292 15.1842 30.5625 14.5175C31.3958 13.8404 32.7448 13.5019 34.6094 13.5019C36.5365 13.5019 37.9375 13.8092 38.8125 14.4238C39.6979 15.0384 40.1615 16.054 40.2031 17.4706C40.224 17.8144 40.2344 18.2415 40.2344 18.7519C40.2344 19.2519 40.224 19.7571 40.2031 20.2675C40.1927 20.7675 40.1823 21.1946 40.1719 21.5488H38C38.0208 20.8717 38.0312 20.1321 38.0312 19.33C38.0417 18.5279 38.0312 17.7884 38 17.1113C37.9896 16.4863 37.7292 16.0384 37.2188 15.7675C36.7188 15.4967 35.849 15.3613 34.6094 15.3613C33.474 15.3613 32.6615 15.4967 32.1719 15.7675C31.6927 16.0384 31.4375 16.4863 31.4062 17.1113C31.2396 22.2675 31.2396 27.429 31.4062 32.5956C31.4375 33.2102 31.6927 33.6581 32.1719 33.9394C32.6615 34.2102 33.4844 34.3456 34.6406 34.3456C35.9427 34.3456 36.8542 34.2102 37.375 33.9394C37.9062 33.6581 38.1875 33.2102 38.2188 32.5956C38.25 31.8665 38.25 31.0852 38.2188 30.2519C38.1979 29.4081 38.1719 28.6217 38.1406 27.8925H40.3594C40.4115 28.6217 40.4427 29.3456 40.4531 30.0644C40.4635 30.7727 40.4427 31.4967 40.3906 32.2363C40.3281 33.6529 39.849 34.6686 38.9531 35.2831C38.0677 35.8977 36.6302 36.205 34.6406 36.205ZM48.5938 36.205C46.5521 36.205 45.099 35.8977 44.2344 35.2831C43.3698 34.6686 42.9115 33.6581 42.8594 32.2519C42.7552 29.7206 42.7031 27.2519 42.7031 24.8456C42.7031 22.429 42.7552 19.955 42.8594 17.4238C42.9115 16.0175 43.3698 15.0123 44.2344 14.4081C45.099 13.7936 46.5521 13.4863 48.5938 13.4863C50.625 13.4863 52.0833 13.7936 52.9688 14.4081C53.8542 15.0123 54.3021 16.0175 54.3125 17.4238C54.375 19.9654 54.4062 22.4394 54.4062 24.8456C54.4062 27.2519 54.375 29.7206 54.3125 32.2519C54.3021 33.6581 53.8542 34.6686 52.9688 35.2831C52.0833 35.8977 50.625 36.205 48.5938 36.205ZM48.5938 34.33C49.8854 34.33 50.7917 34.1998 51.3125 33.9394C51.8333 33.6686 52.1094 33.2311 52.1406 32.6269C52.2865 30.0227 52.3438 27.4081 52.3125 24.7831C52.2917 22.1581 52.2344 19.5852 52.1406 17.0644C52.1094 16.4498 51.8281 16.0123 51.2969 15.7519C50.7656 15.4915 49.8646 15.3613 48.5938 15.3613C47.3021 15.3613 46.3906 15.4915 45.8594 15.7519C45.3385 16.0123 45.0625 16.4498 45.0312 17.0644C44.8854 19.5852 44.8177 22.1581 44.8281 24.7831C44.849 27.4081 44.9167 30.0227 45.0312 32.6269C45.0625 33.2311 45.3385 33.6686 45.8594 33.9394C46.3906 34.1998 47.3021 34.33 48.5938 34.33ZM66.2031 36.0019H57.125V13.6894H59.2969V34.0019H66.2031V36.0019ZM70.7344 36.0019H68.5625V13.6894H70.7344V36.0019ZM76.3906 36.0019H74.2656V13.6894H78.25L79.9844 20.7675L82.875 34.0019H83.75L83.3906 21.8456L83.2812 13.6894H85.4219V36.0019H81.3281L79.3594 28.1113L76.875 15.6738H75.9375L76.2656 27.6269L76.3906 36.0019ZM97.6719 36.0019H88.2812V13.6894H97.6719V15.6894H90.4531V23.7519H97.1875V25.7519H90.4531V34.0019H97.6719V36.0019ZM101.828 36.0019H99.7031V13.6894H103.688L105.422 20.7675L108.312 34.0019H109.188L108.828 21.8456L108.719 13.6894H110.859V36.0019H106.766L104.797 28.1113L102.312 15.6738H101.375L101.703 27.6269L101.828 36.0019Z" fill="#00694D"/>
</svg>
