<svg width="1440" height="499" viewBox="0 0 1440 499" fill="none" xmlns="http://www.w3.org/2000/svg">
<g clip-path="url(#clip0_130_2)">
<rect width="1440" height="499" fill="white"/>
<rect width="1441" height="499" fill="#00694D"/>
<g opacity="0.68">
<path d="M1413.35 700H1322.56L1271.73 420.394H1329.83L1413.35 700Z" fill="#947151"/>
<path d="M1317.12 670.042L1320.75 691.83L1376.13 680.028L1317.12 670.042ZM1306.22 609.219L1309.85 631.006L1365.23 620.113L1306.22 609.219ZM1295.33 550.211L1298.96 570.183L1350.71 560.197L1295.33 550.211ZM1284.44 490.295L1288.07 510.267L1338 500.281L1284.44 490.295ZM1273.54 431.288L1277.17 449.444L1323.47 440.366L1273.54 431.288ZM1401.54 660.964L1396.1 640.084L1345.26 650.07L1401.54 660.964ZM1383.39 600.141L1377.94 581.077L1330.73 590.155L1383.39 600.141ZM1365.23 539.317L1359.78 521.161L1314.39 530.239L1365.23 539.317ZM1347.08 479.402L1341.63 460.338L1294.42 470.324L1347.08 479.402Z" fill="#6D533E"/>
<path d="M1303.5 396.634C1405.17 371.216 1547.7 395.727 1476.89 507.388L1472.35 480.153L1446.93 501.941L1454.2 468.352L1429.69 489.231L1434.23 457.458L1406.99 477.43L1413.35 442.025L1382.48 461.997L1387.02 431.131L1357.06 450.195L1360.69 422.961L1334.37 435.67V413.883L1316.21 420.238L1303.5 396.634Z" fill="#004936"/>
<path d="M1301.68 421.145C1288.97 298.591 1344.35 118.844 1469.63 188.745L1435.13 198.731L1457.83 226.873L1416.98 223.242L1437.86 250.477L1398.82 249.569L1418.79 279.527L1376.12 277.711L1396.1 313.116L1357.97 312.208L1376.12 346.705H1343.44L1354.34 376.662L1328.01 379.386L1333.46 400.266L1301.68 421.145Z" fill="#004936"/>
<path d="M1308.95 399.358C1288.07 275.895 1181.85 121.567 1075.64 234.136L1112.86 231.413L1098.33 266.817L1138.28 249.569L1124.66 282.25L1163.7 267.725L1151.9 304.038L1194.56 286.789L1184.58 327.641L1221.8 313.116L1212.72 353.059L1245.4 341.258L1242.68 374.847L1269.91 368.492L1270.82 390.28L1308.95 399.358Z" fill="#004936"/>
<path d="M1314.39 418.422C1239.05 314.023 1073.82 214.164 1031.16 359.414L1063.84 342.165L1066.56 380.293L1093.8 348.52L1097.43 384.832L1125.57 355.782L1131.92 393.911L1161.88 361.229L1171.87 402.989L1199.1 374.847L1210 414.79L1233.6 391.187L1247.22 422.961L1268.1 405.712L1278.99 425.684L1314.39 418.422Z" fill="#004936"/>
<path d="M1318.93 402.081C1208.18 380.294 1050.22 413.883 1121.94 529.175L1128.29 500.125L1154.62 521.913L1149.17 486.508L1174.59 507.388L1171.87 472.891L1200.01 492.863L1195.47 455.642L1228.15 475.614L1224.52 442.933L1256.29 461.089L1253.57 432.947L1281.71 444.749L1282.62 422.053L1301.68 428.408L1318.93 402.081Z" fill="#004936"/>
<path d="M1292.61 401.173C1367.05 304.945 1532.27 211.44 1575.84 346.704L1543.16 330.364L1540.44 365.769L1513.2 336.719L1509.57 370.308L1481.43 343.981L1475.98 378.478L1446.03 348.52L1436.04 386.648L1408.81 360.322L1397.91 396.634L1374.31 374.847L1360.69 403.897L1339.81 388.464L1328.92 406.62L1292.61 401.173Z" fill="#004936"/>
</g>
</g>
<defs>
<clipPath id="clip0_130_2">
<rect width="1440" height="499" fill="white"/>
</clipPath>
</defs>
</svg>
